<svg xmlns="http://www.w3.org/2000/svg" width="70" height="78" viewBox="0 0 70 78"><path fill-rule="evenodd" fill="#FFF" d="M33.307 9.586L18.028 25.418h-9.54v-9.53L24.335.621a2.117 2.117 0 0 1 2.991.001l5.981 5.976a2.111 2.111 0 0 1 0 2.988zm-7.503-4.494L12.728 17.688v3.495h3.498L28.834 8.119l-3.03-3.027zm-15.196-.853h-5.3a1.06 1.06 0 0 0-1.06 1.059v23.298a1.06 1.06 0 0 0 1.06 1.059h23.319a1.06 1.06 0 0 0 1.06-1.059V23.3c0-1.169.949-2.117 2.12-2.117 1.171 0 2.12.948 2.12 2.117v8.472a2.12 2.12 0 0 1-2.12 2.119H2.129a2.12 2.12 0 0 1-2.12-2.119V2.121C.009.951.958.003 2.129.003h8.479a2.119 2.119 0 1 1 0 4.236z"/></svg>