<svg xmlns="http://www.w3.org/2000/svg" xmlns:xlink="http://www.w3.org/1999/xlink"><symbol id="icon-facebook">
<text font-family="FontAwesome" fill="rgb(245, 245, 245)" font-size="20px" x="0px" y="20.232px">&#xF09A;</text>
</symbol><symbol id="icon-in">
<text font-family="FontAwesome" fill="rgb(245, 245, 245)" font-size="20px" x="0px" y="17.232px">&#xF0E1;</text>
</symbol><symbol id="icon-message">
<path fill-rule="evenodd" fill="rgb(255, 255, 255)" d="M15.196,4.345 C21.022,4.345 25.761,9.095 25.761,14.935 C25.761,20.774 21.022,25.525 15.227,25.525 L15.101,25.517 C14.985,25.509 14.868,25.502 14.751,25.496 L14.040,25.467 L13.357,25.671 L6.272,27.793 L7.132,24.401 L7.605,22.536 L6.511,20.952 C5.281,19.175 4.632,17.094 4.632,14.935 C4.632,9.095 9.371,4.345 15.196,4.345 M15.196,0.109 C7.020,0.109 0.393,6.747 0.393,14.935 C0.393,18.067 1.368,20.967 3.023,23.361 L0.327,33.996 L14.574,29.729 C14.782,29.737 14.986,29.760 15.196,29.760 C23.372,29.760 30.000,23.123 30.000,14.935 C30.000,6.747 23.372,0.109 15.196,0.109 L15.196,0.109 Z"/>
</symbol><symbol id="icon-scroll_down">
<text font-family="FontAwesome" fill="rgb(245, 245, 245)" font-size="20px" x="0px" y="13.232px">&#xF078;</text>
</symbol><symbol id="icon-search">
<path fill-rule="evenodd" fill="rgb(241, 251, 255)" d="M13.378,4.239 C18.026,4.239 21.808,8.039 21.808,12.711 C21.808,14.470 21.267,16.164 20.245,17.607 L19.416,18.778 L18.250,19.612 C16.813,20.640 15.129,21.183 13.378,21.183 C8.730,21.183 4.948,17.382 4.948,12.711 C4.948,8.039 8.730,4.239 13.378,4.239 M13.378,0.003 C6.395,0.003 0.734,5.693 0.734,12.711 C0.734,19.729 6.395,25.418 13.378,25.418 C16.107,25.418 18.627,24.540 20.694,23.063 L30.848,33.269 C31.261,33.684 31.801,33.891 32.341,33.891 C32.881,33.891 33.422,33.684 33.834,33.269 C34.658,32.441 34.658,31.098 33.834,30.269 L23.679,20.064 C25.149,17.987 26.023,15.454 26.023,12.711 C26.023,5.693 20.361,0.003 13.378,0.003 L13.378,0.003 Z"/>
</symbol><symbol id="icon-skype">
<text font-family="FontAwesome" fill="rgb(245, 245, 245)" font-size="20px" x="0px" y="18.232px">&#xF17E;</text>
</symbol><symbol id="icon-twitter">
<text font-family="FontAwesome" fill="rgb(245, 245, 245)" font-size="20px" x="0px" y="15.232px">&#xF099;</text>
</symbol><symbol id="icon-write">
<path fill-rule="evenodd" fill="rgb(255, 255, 255)" d="M33.307,9.586 L18.028,25.418 L8.488,25.418 L8.488,15.888 L24.335,0.621 C24.748,0.210 25.290,0.003 25.831,0.003 C26.372,0.003 26.914,0.210 27.326,0.622 L33.307,6.598 C34.133,7.423 34.133,8.761 33.307,9.586 ZM25.804,5.092 L12.728,17.688 L12.728,21.183 L16.226,21.183 L28.834,8.119 L25.804,5.092 ZM10.608,4.239 L5.308,4.239 C4.723,4.239 4.248,4.713 4.248,5.298 L4.248,28.596 C4.248,29.181 4.723,29.655 5.308,29.655 L28.627,29.655 C29.212,29.655 29.687,29.181 29.687,28.596 L29.687,23.300 C29.687,22.131 30.636,21.183 31.807,21.183 C32.978,21.183 33.927,22.131 33.927,23.300 L33.927,31.772 C33.927,32.942 32.978,33.891 31.807,33.891 L2.129,33.891 C0.958,33.891 0.009,32.942 0.009,31.772 L0.009,2.121 C0.009,0.951 0.958,0.003 2.129,0.003 L10.608,0.003 C11.779,0.003 12.728,0.951 12.728,2.121 C12.728,3.291 11.779,4.239 10.608,4.239 Z"/>
</symbol></svg>